<svg xmlns="http://www.w3.org/2000/svg" xmlns:xlink="http://www.w3.org/1999/xlink" width="612" height="4596" viewBox="0 0 612 4596"><svg viewBox="0 0 250.738 250.738" width="250.738" height="250.738" id="arrow-left" y="0"><path d="M96.633 125.369l95.053-94.533c7.101-7.055 7.101-18.492 0-25.546-7.1-7.054-18.613-7.054-25.714 0L58.989 111.689c-3.784 3.759-5.487 8.759-5.238 13.68-.249 4.922 1.454 9.921 5.238 13.681l106.983 106.398c7.101 7.055 18.613 7.055 25.714 0 7.101-7.054 7.101-18.491 0-25.544l-95.053-94.535z" fill-rule="evenodd" clip-rule="evenodd"></path></svg><svg width="451.846" height="451.847" viewBox="0 0 451.846 451.847" id="arrow-right" y="251"><path d="M345.441 248.292L151.154 442.573c-12.359 12.365-32.397 12.365-44.75 0-12.354-12.354-12.354-32.391 0-44.744L278.318 225.92 106.409 54.017c-12.354-12.359-12.354-32.394 0-44.748 12.354-12.359 32.391-12.359 44.75 0l194.287 194.284c6.177 6.18 9.262 14.271 9.262 22.366 0 8.099-3.091 16.196-9.267 22.373z"></path></svg><svg width="284.929" height="284.929" viewBox="0 0 284.929 284.929" id="arrow-top" y="703"><path d="M282.082 195.285L149.028 62.24c-1.901-1.903-4.088-2.856-6.562-2.856s-4.665.953-6.567 2.856L2.856 195.285C.95 197.191 0 199.378 0 201.853c0 2.474.953 4.664 2.856 6.566l14.272 14.271c1.903 1.903 4.093 2.854 6.567 2.854s4.664-.951 6.567-2.854l112.204-112.202 112.208 112.209c1.902 1.903 4.093 2.848 6.563 2.848 2.478 0 4.668-.951 6.57-2.848l14.274-14.277c1.902-1.902 2.847-4.093 2.847-6.566.001-2.476-.944-4.666-2.846-6.569z"></path></svg><svg width="442.533" height="442.533" viewBox="0 0 442.533 442.533" id="correct" y="988"><path d="M434.539 98.499l-38.828-38.828c-5.324-5.328-11.799-7.993-19.41-7.993-7.618 0-14.093 2.665-19.417 7.993L169.59 247.248l-83.939-84.225c-5.33-5.33-11.801-7.992-19.412-7.992-7.616 0-14.087 2.662-19.417 7.992L7.994 201.852C2.664 207.181 0 213.654 0 221.269c0 7.609 2.664 14.088 7.994 19.416l103.351 103.349 38.831 38.828c5.327 5.332 11.8 7.994 19.414 7.994 7.611 0 14.084-2.669 19.414-7.994l38.83-38.828L434.539 137.33c5.325-5.33 7.994-11.802 7.994-19.417.004-7.611-2.669-14.084-7.994-19.414z"></path></svg><svg width="96.124" height="96.123" viewBox="0 0 96.124 96.123" id="facebook" y="1431"><path d="M72.089.02L59.624 0C45.62 0 36.57 9.285 36.57 23.656v10.907H24.037a1.96 1.96 0 0 0-1.96 1.961v15.803a1.96 1.96 0 0 0 1.96 1.96H36.57v39.876a1.96 1.96 0 0 0 1.96 1.96h16.352a1.96 1.96 0 0 0 1.96-1.96V54.287h14.654a1.96 1.96 0 0 0 1.96-1.96l.006-15.803a1.963 1.963 0 0 0-1.961-1.961H56.842v-9.246c0-4.444 1.059-6.7 6.848-6.7l8.397-.003a1.96 1.96 0 0 0 1.959-1.96V1.98A1.96 1.96 0 0 0 72.089.02z"></path></svg><svg viewBox="0 0 491.858 491.858" width="491.858" height="491.858" id="google-plus" y="1528"><path d="M377.472 224.957H201.319v58.718H308.79c-16.032 51.048-63.714 88.077-120.055 88.077-69.492 0-125.823-56.335-125.823-125.824 0-69.492 56.333-125.823 125.823-125.823 34.994 0 66.645 14.289 89.452 37.346l42.622-46.328c-34.04-33.355-80.65-53.929-132.074-53.929C84.5 57.193 0 141.693 0 245.928s84.5 188.737 188.736 188.737c91.307 0 171.248-64.844 188.737-150.989v-58.718l-.001-.001zM491.858 224.857h-36.031v-36.031h-30.886v36.031H388.91v30.883h36.031v36.032h30.886V255.74h36.031z"></path></svg><svg width="460.298" height="460.297" viewBox="0 0 460.298 460.297" id="home" y="2020"><path d="M230.149 120.939L65.986 256.274c0 .191-.048.472-.144.855-.094.38-.144.656-.144.852v137.041c0 4.948 1.809 9.236 5.426 12.847 3.616 3.613 7.898 5.431 12.847 5.431h109.63V303.664h73.097v109.64h109.629c4.948 0 9.236-1.814 12.847-5.435 3.617-3.607 5.432-7.898 5.432-12.847V257.981c0-.76-.104-1.334-.288-1.707L230.149 120.939z"></path><path d="M457.122 225.438L394.6 173.476V56.989c0-2.663-.856-4.853-2.574-6.567-1.704-1.712-3.894-2.568-6.563-2.568h-54.816c-2.666 0-4.855.856-6.57 2.568-1.711 1.714-2.566 3.905-2.566 6.567v55.673l-69.662-58.245c-6.084-4.949-13.318-7.423-21.694-7.423-8.375 0-15.608 2.474-21.698 7.423L3.172 225.438c-1.903 1.52-2.946 3.566-3.14 6.136-.193 2.568.472 4.811 1.997 6.713l17.701 21.128c1.525 1.712 3.521 2.759 5.996 3.142 2.285.192 4.57-.476 6.855-1.998L230.149 95.817l197.57 164.741c1.526 1.328 3.521 1.991 5.996 1.991h.858c2.471-.376 4.463-1.43 5.996-3.138l17.703-21.125c1.522-1.906 2.189-4.145 1.991-6.716-.195-2.563-1.242-4.609-3.141-6.132z"></path></svg><svg viewBox="0 0 478.165 478.165" width="478.165" height="478.165" id="linkedin" y="2481"><path d="M478.165 290.794v176.742H375.638V302.549c0-41.481-14.783-69.673-51.881-69.673-28.371 0-45.107 19.087-52.578 37.456-2.69 6.615-3.507 15.879-3.507 25.024v172.159H165.246s1.375-279.328 0-308.257h102.447v43.692c-.139.359-.438.657-.578 1.056h.578v-1.056c13.687-20.999 37.934-50.925 92.385-50.925 67.581.001 118.087 44.052 118.087 138.769zM57.997 10.629C22.952 10.629 0 33.621 0 63.945c0 29.507 22.275 53.276 56.682 53.276h.618c35.822 0 58.017-23.769 58.017-53.276-.697-30.324-22.194-53.316-57.32-53.316zM6.117 467.535h102.467V159.239H6.117v308.296z"></path></svg><svg viewBox="0 0 14 14" width="14" height="14" id="mail" y="2960"><g fill="#030104"><path d="M7 9L5.268 7.484.316 11.729c.18.167.423.271.691.271h11.986c.267 0 .509-.104.688-.271L8.732 7.484 7 9z"></path><path d="M13.684 2.271A1.007 1.007 0 0 0 12.993 2H1.007c-.267 0-.509.104-.689.273L7 8l6.684-5.729zM0 2.878v8.308l4.833-4.107zM9.167 7.079L14 11.186V2.875z"></path></g></svg><svg viewBox="0 0 578.106 578.106" width="578.106" height="578.106" id="phone" y="2974"><path d="M577.83 456.128c1.225 9.385-1.635 17.545-8.568 24.48l-81.396 80.781c-3.672 4.08-8.465 7.551-14.381 10.404-5.916 2.857-11.729 4.693-17.439 5.508-.408 0-1.635.105-3.676.309-2.037.203-4.689.307-7.953.307-7.754 0-20.301-1.326-37.641-3.979s-38.555-9.182-63.645-19.584c-25.096-10.404-53.553-26.012-85.376-46.818-31.823-20.805-65.688-49.367-101.592-85.68-28.56-28.152-52.224-55.08-70.992-80.783-18.768-25.705-33.864-49.471-45.288-71.299-11.425-21.828-19.993-41.616-25.705-59.364S4.59 177.362 2.55 164.51-.306 141.56.102 134.216c.408-7.344.612-11.424.612-12.24.816-5.712 2.652-11.526 5.508-17.442s6.324-10.71 10.404-14.382L98.022 8.756c5.712-5.712 12.24-8.568 19.584-8.568 5.304 0 9.996 1.53 14.076 4.59s7.548 6.834 10.404 11.322l65.484 124.236c3.672 6.528 4.692 13.668 3.06 21.42-1.632 7.752-5.1 14.28-10.404 19.584l-29.988 29.988c-.816.816-1.53 2.142-2.142 3.978s-.918 3.366-.918 4.59c1.632 8.568 5.304 18.36 11.016 29.376 4.896 9.792 12.444 21.726 22.644 35.802s24.684 30.293 43.452 48.653c18.36 18.77 34.68 33.354 48.96 43.76 14.277 10.4 26.215 18.053 35.803 22.949 9.588 4.896 16.932 7.854 22.031 8.871l7.648 1.531c.816 0 2.145-.307 3.979-.918 1.836-.613 3.162-1.326 3.979-2.143l34.883-35.496c7.348-6.527 15.912-9.791 25.705-9.791 6.938 0 12.443 1.223 16.523 3.672h.611l118.115 69.768c8.571 5.308 13.67 12.038 15.303 20.198z" fill="#010002"></path></svg><svg width="430.123" height="430.123" viewBox="0 0 430.123 430.123" id="skype" y="3553"><path d="M412.164 246.198a199.284 199.284 0 0 0 2.45-31.148c0-110.215-89.342-199.555-199.56-199.555-10.576 0-20.995.871-31.141 2.458C165.534 6.581 143.842 0 120.595 0 53.996 0 .005 53.984.005 120.59c0 23.242 6.585 44.916 17.952 63.332-1.573 10.172-2.439 20.528-2.439 31.132 0 110.223 89.34 199.536 199.532 199.536 10.585 0 21.007-.816 31.152-2.417 18.398 11.35 40.072 17.949 63.314 17.949 66.617 0 120.602-53.998 120.602-120.602.005-23.251-6.576-44.92-17.954-63.322zM309.801 305.81c-8.442 12.153-20.843 21.65-37.047 28.479-16.237 6.847-35.428 10.254-57.59 10.254-26.562 0-48.554-4.648-65.913-14.034-12.305-6.721-22.313-15.737-30.007-26.98-7.71-11.252-11.619-22.271-11.619-33.015 0-6.338 2.417-11.85 7.122-16.344 4.754-4.527 10.877-6.796 18.104-6.796 5.92 0 11.005 1.783 15.145 5.316 4.109 3.532 7.556 8.667 10.375 15.443 3.379 7.85 7.049 14.412 10.954 19.648 3.881 5.171 9.343 9.488 16.417 12.867 6.996 3.388 16.307 5.082 27.958 5.082 15.945 0 28.831-3.449 38.693-10.253 9.912-6.866 14.673-15.22 14.673-25.314 0-8.051-2.567-14.445-7.831-19.43-5.312-5.05-12.172-8.896-20.685-11.579-8.546-2.711-20.02-5.586-34.399-8.615-19.308-4.214-35.456-9.119-48.533-14.752-13.094-5.654-23.522-13.383-31.251-23.146-7.745-9.859-11.607-22.113-11.607-36.627 0-13.84 4.077-26.217 12.239-36.989 8.158-10.802 19.961-19.07 35.351-24.829 15.336-5.757 33.391-8.637 54.075-8.637 16.541 0 30.849 1.914 42.96 5.722 12.078 3.836 22.146 8.898 30.196 15.25 7.999 6.338 13.885 13.023 17.613 20.038 3.725 7.036 5.601 13.908 5.601 20.614 0 6.235-2.417 11.89-7.127 16.846-4.709 4.963-10.733 7.493-17.768 7.47-6.342 0-11.317-1.463-14.767-4.56-3.36-2.996-6.889-7.766-10.706-14.414-4.825-9.276-10.604-16.503-17.324-21.672-6.543-5.073-17.338-7.714-32.359-7.682-13.898 0-25.018 2.84-33.411 8.394-8.445 5.643-12.482 12.19-12.501 19.861.014 4.807 1.396 8.86 4.177 12.326 2.824 3.498 6.753 6.529 11.803 9.084a81.825 81.825 0 0 0 15.355 6.046c5.225 1.481 13.894 3.622 25.944 6.457 15.112 3.257 28.819 6.896 41.136 10.862 12.293 3.986 22.784 8.793 31.451 14.52 8.736 5.71 15.564 12.99 20.438 21.783 4.909 8.807 7.354 19.564 7.354 32.222.019 15.242-4.227 28.95-12.689 41.084z"></path></svg><svg viewBox="0 0 612 612" width="612" height="612" id="twitter" y="3984"><path d="M612 116.258a250.714 250.714 0 0 1-72.088 19.772c25.929-15.527 45.777-40.155 55.184-69.411-24.322 14.379-51.169 24.82-79.775 30.48-22.907-24.437-55.49-39.658-91.63-39.658-69.334 0-125.551 56.217-125.551 125.513 0 9.828 1.109 19.427 3.251 28.606-104.326-5.24-196.835-55.223-258.75-131.174-10.823 18.51-16.98 40.078-16.98 63.101 0 43.559 22.181 81.993 55.835 104.479a125.556 125.556 0 0 1-56.867-15.756v1.568c0 60.806 43.291 111.554 100.693 123.104-10.517 2.83-21.607 4.398-33.08 4.398-8.107 0-15.947-.803-23.634-2.333 15.985 49.907 62.336 86.199 117.253 87.194-42.947 33.654-97.099 53.655-155.916 53.655-10.134 0-20.116-.612-29.944-1.721 55.567 35.681 121.536 56.485 192.438 56.485 230.948 0 357.188-191.291 357.188-357.188l-.421-16.253c24.666-17.593 46.005-39.697 62.794-64.861z" fill="#010002"></path></svg></svg>